<?xml version="1.0" standalone="no"?>
<!DOCTYPE svg PUBLIC "-//W3C//DTD SVG 1.1//EN" "http://www.w3.org/Graphics/SVG/1.1/DTD/svg11.dtd" >
<svg xmlns="http://www.w3.org/2000/svg" xmlns:xlink="http://www.w3.org/1999/xlink" version="1.1">
<metadata></metadata>
<defs>
<font id="catamaranextrabold" horiz-adv-x="1402" >
<font-face units-per-em="2048" ascent="1577" descent="-471" />
<missing-glyph horiz-adv-x="454" />
<glyph horiz-adv-x="0" />
<glyph horiz-adv-x="0" />
<glyph unicode="&#xd;" horiz-adv-x="0" />
<glyph unicode=" "  horiz-adv-x="454" />
<glyph unicode="&#x09;" horiz-adv-x="454" />
<glyph unicode="&#xa0;" horiz-adv-x="454" />
<glyph unicode="!" horiz-adv-x="460" d="M61 168q0 -70 49.5 -119t120.5 -49q72 0 120 49t48 119q0 72 -48 121t-120 49q-71 0 -120.5 -49t-49.5 -121zM68 1450l36 -946l254 -90l35 1036h-325z" />
<glyph unicode="&#x22;" horiz-adv-x="868" d="M41 1051l65 -146q127 59 212 177t85 237q0 88 -50 144.5t-122 56.5q-69 0 -119.5 -53.5t-50.5 -116.5q0 -51 32 -96.5t69 -57.5q-16 -70 -121 -145zM444 1051l68 -146q125 57 210 176t85 238q0 88 -49 144.5t-121 56.5q-70 0 -120 -53.5t-50 -116.5q0 -51 30.5 -96.5 t69.5 -57.5q-10 -41 -41.5 -76t-81.5 -69z" />
<glyph unicode="#" horiz-adv-x="1261" d="M61 424l23 -236h90l-45 -208l262 -11l51 219h222l-48 -208l265 -11l49 219h270l-20 236h-193l43 194h170l-20 236h-93l48 205l-269 2l-49 -207h-219l49 205l-266 2l-49 -207h-271l23 -236h190l-43 -194h-170zM500 424l43 194h219l-45 -194h-217z" />
<glyph unicode="$" horiz-adv-x="1099" d="M66 1036q2 115 66.5 205t180.5 137v242l211 25v-224h41q43 0 64 -2v201l213 25v-275q63 -23 125 -57l-99 -234q-98 41 -161.5 57.5t-137.5 16.5q-76 0 -124 -31.5t-48 -87.5q0 -45 40 -78.5t128 -81.5q33 -14 68 -36q147 -86 225 -140.5t137.5 -137.5t59.5 -189 q0 -115 -63.5 -204t-182.5 -140v-283h-213v233q-53 -4 -80 -4h-29v-225h-211v262q-131 39 -194 78l92 250q66 -35 163 -64.5t173 -29.5q102 0 157.5 35.5t55.5 95.5q0 39 -42 71.5t-136 88.5q-20 10 -62 34q-139 84 -218 139.5t-139 139.5t-60 188z" />
<glyph unicode="%" horiz-adv-x="1951" d="M45 1077q0 -166 98.5 -263t251.5 -97q102 0 184.5 44t130.5 125t48 189q0 164 -100.5 263.5t-256.5 99.5q-100 0 -181 -44t-128 -126t-47 -191zM299 1077q0 66 29.5 101.5t74.5 35.5q49 0 75 -36.5t26 -104.5q0 -66 -29 -101.5t-76 -35.5q-49 0 -74.5 36t-25.5 105z M504 0l327 -4l611 1450l-328 4zM1198 360q0 -163 97.5 -260.5t250.5 -97.5q102 0 184 44t129.5 125t47.5 189q0 166 -99.5 263.5t-255.5 97.5q-154 0 -254 -97.5t-100 -263.5zM1450 362q0 66 29.5 101t74.5 35q47 0 74 -37t27 -103t-29 -102.5t-76 -36.5t-73.5 37t-26.5 106 z" />
<glyph unicode="&#x26;" horiz-adv-x="1404" d="M66 442q0 -154 73.5 -261t199.5 -161.5t282 -56.5q113 0 213 37t182 102l153 -137l191 236l-160 135q90 186 105 377l-285 114q-14 -154 -64 -280l-294 262q-82 74 -117 121t-35 94q0 55 41 94t113 39q133 0 276 -80l96 234q-84 55 -186 84.5t-213 29.5 q-129 0 -231.5 -55t-159 -147.5t-56.5 -200.5q0 -111 62 -205q-84 -74 -135 -174t-51 -201zM399 449q4 88 56 155l342 -307q-80 -59 -172 -59q-100 0 -163 55t-63 156z" />
<glyph unicode="'" horiz-adv-x="464" d="M41 1051l65 -146q127 59 212 177t85 237q0 88 -50 144.5t-122 56.5q-69 0 -119.5 -53.5t-50.5 -116.5q0 -51 32 -96.5t69 -57.5q-16 -70 -121 -145z" />
<glyph unicode="(" horiz-adv-x="696" d="M102 657q0 -199 68 -386t192 -351l271 78q-88 106 -153.5 305t-65.5 356q0 152 65.5 344.5t155.5 317.5l-273 76q-129 -184 -194.5 -365.5t-65.5 -374.5z" />
<glyph unicode=")" horiz-adv-x="696" d="M61 -4l271 -76q129 184 195.5 365.5t66.5 373.5q0 197 -68.5 384.5t-191.5 353.5l-271 -78q89 -105 153.5 -304.5t64.5 -357.5q0 -152 -65.5 -345t-154.5 -316z" />
<glyph unicode="*" horiz-adv-x="831" d="M20 1212l199 -38l-143 -193l200 -139l140 196l141 -196l199 139l-144 193l199 38l-66 226l-200 -52l-2 201h-252l-2 -201l-203 52z" />
<glyph unicode="+" horiz-adv-x="1148" d="M61 686l21 -250h348v-420l299 -12v432h358l-20 250h-338v399l-299 5v-404h-369z" />
<glyph unicode="," horiz-adv-x="464" d="M41 -170l68 -145q125 57 209.5 177t84.5 236q0 88 -50 145.5t-122 57.5q-69 0 -118.5 -53t-49.5 -119q0 -51 31 -96t70 -58q-10 -41 -41 -74.5t-82 -70.5z" />
<glyph unicode="-" horiz-adv-x="700" d="M61 686l23 -252h555l-21 252h-557z" />
<glyph unicode="." horiz-adv-x="460" d="M61 168q0 -70 49.5 -119t120.5 -49q72 0 120 49t48 119q0 72 -48 121t-120 49t-121 -49t-49 -121z" />
<glyph unicode="/" horiz-adv-x="983" d="M20 0l330 -4l613 1450l-332 4z" />
<glyph unicode="0" horiz-adv-x="1316" d="M45 582q0 -174 79 -313.5t219 -218.5t314 -79q176 0 315.5 79t218.5 219.5t79 316.5q0 172 -79 309t-218 214t-314 77q-176 0 -316 -78t-219 -216t-79 -310zM362 588q0 145 83 239.5t212 94.5q86 0 155 -44t106.5 -122t37.5 -176q0 -96 -37.5 -175t-106.5 -123t-153 -44 q-86 0 -153.5 45t-105.5 124.5t-38 180.5z" />
<glyph unicode="1" horiz-adv-x="827" d="M20 956l123 -249l236 96v-803h321v1159h-215z" />
<glyph unicode="2" horiz-adv-x="1007" d="M51 0h916l-25 248h-444l139 117q156 131 223.5 231t67.5 229q0 172 -122 266.5t-333 94.5q-217 -1 -395 -107l47 -258q72 41 160 73t170 32q90 0 142 -33t52 -94q0 -55 -49 -113.5t-149 -142.5l-400 -344v-199z" />
<glyph unicode="3" horiz-adv-x="1044" d="M0 -14q109 -66 235.5 -105t237.5 -39q154 0 270.5 52.5t181 144.5t64.5 209q0 102 -56 190t-126 119q59 31 109.5 109.5t50.5 158.5q0 102 -56.5 184.5t-162 129.5t-248.5 47q-258 -1 -459 -148l152 -215q154 102 284 103q82 0 127 -34t45 -85q0 -63 -62.5 -101 t-166.5 -38h-152l33 -252h150q109 0 166 -43t57 -121q0 -68 -57.5 -110t-141.5 -42q-80 0 -150.5 22.5t-156.5 76.5z" />
<glyph unicode="4" horiz-adv-x="1200" d="M20 362l39 -247h570v-250h321v250h187l22 258h-209v796h-239zM385 373l244 301v-301h-244z" />
<glyph unicode="5" horiz-adv-x="1071" d="M45 -16q100 -63 228 -103.5t239 -40.5q156 0 271.5 59.5t178 166t62.5 243.5q0 119 -50 219.5t-150.5 161t-239.5 60.5q-80 0 -140 -33l7 188h475l32 254h-778l-37 -764h275q14 35 54 63.5t95 28.5q74 0 121 -49t47 -129q0 -90 -61.5 -143t-155.5 -53q-80 0 -149.5 22.5 t-163.5 73.5z" />
<glyph unicode="6" horiz-adv-x="1138" d="M45 516q0 256 140.5 426t339 254t393.5 102l36 -282q-180 -37 -305 -85t-203 -147q82 35 168 35q138 0 246.5 -54t170 -150.5t61.5 -215.5q0 -125 -59.5 -221t-169 -150.5t-253.5 -54.5q-164 0 -293 65.5t-200.5 188.5t-71.5 289zM367 516q4 -135 67.5 -209t167.5 -74 q72 0 124 51.5t52 125.5q0 78 -54 131t-136 53q-115 0 -221 -78z" />
<glyph unicode="7" horiz-adv-x="1015" d="M20 1159l35 -254h570l-375 -971l311 -84l414 1182l-74 127h-881z" />
<glyph unicode="8" horiz-adv-x="1114" d="M45 391q0 -123 62.5 -217t179 -147.5t272.5 -53.5t270.5 54.5t176 149.5t61.5 214q0 92 -58.5 178t-140.5 127q68 41 110 108.5t42 141.5q0 106 -60.5 190.5t-165 132.5t-235.5 48q-133 0 -239.5 -48t-166 -132t-59.5 -191q0 -74 42 -141.5t110 -106.5 q-82 -41 -141.5 -128t-59.5 -179zM360 397q0 66 52.5 119t146.5 68q90 -15 143.5 -69t53.5 -118q0 -68 -61.5 -116t-137.5 -48q-78 0 -137.5 47.5t-59.5 116.5zM410 932q0 47 41 85t104 38q68 0 109 -36t41 -83q0 -55 -38 -94t-108 -49q-72 10 -110.5 48t-38.5 91z" />
<glyph unicode="9" horiz-adv-x="1138" d="M45 760q0 125 60.5 221t169 150.5t251.5 54.5q166 0 294 -65.5t200 -188.5t72 -289q0 -256 -140.5 -426t-339 -254t-393.5 -102l-37 282q180 37 305 85t203 147q-82 -35 -168 -35q-135 0 -244.5 55.5t-171 150.5t-61.5 214zM358 750q0 -78 55.5 -131.5t137.5 -53.5 q111 0 219 76q-4 137 -66.5 211t-166.5 74q-74 0 -126.5 -51.5t-52.5 -124.5z" />
<glyph unicode=":" horiz-adv-x="460" d="M61 168q0 -70 49.5 -119t120.5 -49q72 0 120 49t48 119q0 72 -48 121t-120 49t-121 -49t-49 -121zM61 803q0 -70 49.5 -119t120.5 -49q72 0 120 49t48 119q0 72 -49 121t-119 49t-120 -49.5t-50 -120.5z" />
<glyph unicode=";" horiz-adv-x="466" d="M41 -131l68 -148q125 57 209.5 177t84.5 237q0 88 -50 145.5t-122 57.5q-67 0 -117.5 -53.5t-50.5 -116.5q0 -51 31 -97t70 -57q-10 -41 -42 -75.5t-81 -69.5zM66 803q0 -70 50 -119t122 -49t120 49t48 119q0 72 -49.5 121t-118.5 49q-72 0 -122 -50.5t-50 -119.5z" />
<glyph unicode="&#x3c;" horiz-adv-x="747" d="M61 438l588 -422l58 275l-310 219l310 217l-58 272l-588 -417v-144z" />
<glyph unicode="=" horiz-adv-x="1085" d="M61 424l23 -236h940l-20 236h-943zM61 854l23 -236h940l-20 236h-943z" />
<glyph unicode="&#x3e;" horiz-adv-x="747" d="M41 289l57 -273l588 420v144l-588 419l-57 -274l309 -217z" />
<glyph unicode="?" horiz-adv-x="923" d="M20 1325l41 -272q104 63 193.5 92t153.5 29q61 0 100 -32t39 -85q0 -68 -89 -137.5t-233 -114.5l17 -332l241 -80l29 258q168 70 259 177.5t91 226.5q0 172 -119.5 276.5t-328.5 104.5q-210 0 -394 -111zM174 168q0 -70 49 -119t121 -49t121 48t49 120t-49 121t-121 49 t-121 -49t-49 -121z" />
<glyph unicode="@" horiz-adv-x="1615" d="M45 475q0 -209 104.5 -365.5t275.5 -239.5t366 -83q123 0 227 18.5t213 73.5l-78 205q-70 -31 -168 -45t-174 -14q-131 0 -241.5 52t-176 152.5t-65.5 237.5q0 162 74.5 287t200.5 193.5t276 68.5q133 0 230 -52.5t147.5 -142.5t50.5 -200q0 -76 -26 -134.5t-61.5 -91.5 t-64.5 -33q-12 0 -20.5 11.5t-8.5 29.5l48 388l-78 108h-174q-121 0 -231.5 -47t-180.5 -145.5t-70 -243.5q0 -158 94.5 -251t280.5 -93q86 0 166 45q61 -49 154 -49q113 0 213 60.5t160.5 177t60.5 278.5q0 174 -91.5 319.5t-250 229.5t-353.5 84q-250 0 -438 -108.5 t-289.5 -289t-101.5 -391.5zM707 471q0 92 55 149.5t143 57.5l-31 -234q-4 -31 -21 -52t-42 -21q-53 0 -78.5 29.5t-25.5 70.5z" />
<glyph unicode="A" d="M20 0h320l109 301h505l113 -321l315 36l-528 1377h-301zM539 555l157 432l164 -432h-321z" />
<glyph unicode="B" horiz-adv-x="1304" d="M168 0h549q239 0 391 103.5t152 310.5q0 109 -54.5 192.5t-146.5 141.5q139 123 139 249q0 201 -142.5 298.5t-373.5 97.5h-514v-1393zM487 256v334h232q96 0 152.5 -46t56.5 -128q0 -76 -59.5 -118t-157.5 -42h-224zM487 846v289h168q209 0 209 -150q0 -70 -66.5 -104.5 t-170.5 -34.5h-140z" />
<glyph unicode="C" horiz-adv-x="1187" d="M66 690q0 -207 81.5 -369.5t238.5 -255t374 -92.5q98 0 211.5 26t191.5 71l-121 237q-137 -69 -280 -69h-4q-102 0 -184 58t-129.5 161.5t-47.5 234.5q0 137 49.5 242.5t132.5 163t179 57.5q76 0 130 -12.5t165 -46.5l96 221q-82 49 -190.5 75.5t-198.5 26.5 q-203 0 -360.5 -93t-245.5 -259t-88 -377z" />
<glyph unicode="D" horiz-adv-x="1464" d="M168 0h577q199 0 346.5 86t227.5 244.5t80 374.5q0 203 -74 357.5t-220.5 242.5t-354.5 88h-582v-1393zM487 258v875h258q158 0 240 -115t82 -313q0 -225 -90 -336t-246 -111h-244z" />
<glyph unicode="E" horiz-adv-x="1208" d="M168 0h999l-39 250h-641v325h482l-39 252h-443v314h598l-38 252h-879v-1393z" />
<glyph unicode="F" horiz-adv-x="1093" d="M168 0h319v557h469l-36 252h-433v332h566l-37 250h-848v-1391z" />
<glyph unicode="G" horiz-adv-x="1327" d="M66 690q0 -213 88 -374.5t250.5 -252t379.5 -90.5q121 0 249 28t208 75v706h-526l-27 -239h264v-289q-94 -16 -166 -16q-106 0 -194 52t-141.5 154.5t-53.5 247.5q0 147 58.5 253t154 158t201.5 52q78 0 143.5 -13.5t171.5 -45.5l97 221q-80 49 -201 75.5t-215 26.5 q-207 0 -377 -91t-267 -257t-97 -381z" />
<glyph unicode="H" horiz-adv-x="1495" d="M168 0h319v567h519v-567h319v1393h-319v-572h-519v584l-319 -12v-1393z" />
<glyph unicode="I" horiz-adv-x="657" d="M168 0h319v1393h-319v-1393z" />
<glyph unicode="J" horiz-adv-x="655" d="M20 33l130 -246q137 45 213.5 92t110.5 111.5t34 165.5v1237h-322v-1164q0 -51 -11 -82.5t-47 -59.5t-108 -54z" />
<glyph unicode="K" horiz-adv-x="1423" d="M168 0v1393h321v-533l582 563l244 -180l-477 -471l565 -772h-404l-387 549l-123 -123v-426h-321z" />
<glyph unicode="L" horiz-adv-x="1148" d="M168 0h960l-36 250h-605v1143h-319v-1393z" />
<glyph unicode="M" horiz-adv-x="1607" d="M168 0h319v760l279 -350l127 18l223 309v-737h322v1393h-205l-406 -586l-446 586h-213v-1393z" />
<glyph unicode="N" horiz-adv-x="1554" d="M168 0h319v831l590 -831h307v1393h-319v-842l-590 842h-307v-1393z" />
<glyph unicode="O" horiz-adv-x="1536" d="M66 690q0 -201 85 -364.5t243.5 -259t373.5 -95.5q205 2 364.5 95.5t248.5 259.5t89 379q0 201 -83.5 364.5t-242.5 258.5t-376 95q-205 -2 -364.5 -96t-248.5 -260t-89 -377zM397 692q0 137 51.5 242.5t136.5 163t187 57.5q111 0 194 -58.5t128 -160.5t45 -231 q0 -152 -49.5 -256.5t-134.5 -156.5t-189 -52q-170 0 -269.5 126t-99.5 326z" />
<glyph unicode="P" horiz-adv-x="1290" d="M168 0h319v444h177q156 0 287.5 52.5t211.5 159t80 262.5q0 158 -74.5 264t-201.5 158.5t-285 52.5h-514v-1393zM487 700v435h185q112 0 174.5 -57.5t62.5 -168.5q-2 -96 -66.5 -152.5t-166.5 -56.5h-189z" />
<glyph unicode="Q" horiz-adv-x="1536" d="M66 690q0 211 89 377t248.5 260t364.5 96q217 0 376 -95t242.5 -259t83.5 -364q0 -146 -42 -272t-121 -220l129 -135l-195 -168l-139 139q-150 -76 -334 -78q-215 0 -373.5 95.5t-243.5 259t-85 364.5zM397 692q0 -201 99.5 -326.5t269.5 -125.5q68 0 123 20l-170 168 l215 174l153 -160q51 109 52 263q0 129 -45 231t-128 160.5t-194 58.5q-102 0 -187 -57.5t-136.5 -163t-51.5 -242.5z" />
<glyph unicode="R" horiz-adv-x="1376" d="M168 0h319v483h250l260 -483h359l-326 573q98 55 155.5 149.5t57.5 217.5q0 225 -157.5 339t-403.5 114h-514v-1393zM487 737v398h185q114 0 175.5 -49.5t61.5 -151.5q0 -92 -64.5 -144.5t-168.5 -52.5h-189z" />
<glyph unicode="S" horiz-adv-x="1099" d="M66 1036q0 -104 60 -188t139 -139.5t218 -139.5q41 -25 62 -34q94 -55 136 -88t42 -72q0 -59 -55.5 -95t-157.5 -36q-76 0 -173 29.5t-163 64.5l-92 -250q74 -45 206 -80t228 -35q166 0 288 51.5t186.5 141.5t64.5 205q0 106 -59.5 189t-137.5 137.5t-225 140.5 q-35 23 -68 36q-88 47 -128 81t-40 79q0 55 48.5 87t123.5 32q74 0 137.5 -16.5t161.5 -57.5l99 234q-82 49 -190.5 78.5t-211.5 29.5q-152 0 -264.5 -50t-172.5 -137t-62 -198z" />
<glyph unicode="T" horiz-adv-x="1239" d="M20 1141h416v-1141h322v1141h461l-39 252h-1160v-252z" />
<glyph unicode="U" horiz-adv-x="1495" d="M147 1393l3 -873q0 -166 73.5 -288.5t209.5 -190.5t315 -68q178 0 314 68t211 190.5t75 288.5v873h-322v-854q0 -145 -76 -222t-202 -77q-127 0 -203 75.5t-76 223.5v854h-322z" />
<glyph unicode="V" d="M20 1376l531 -1376h301l530 1393h-317l-358 -987l-369 1007z" />
<glyph unicode="W" horiz-adv-x="1972" d="M20 1376l318 37l256 -1007l235 987h320l250 -987l233 987h320l-410 -1393h-299l-256 944l-248 -944h-301z" />
<glyph unicode="X" horiz-adv-x="1386" d="M20 0h359l313 451l281 -451h379l-463 700l475 693h-371l-288 -443l-334 490l-318 -105l453 -637z" />
<glyph unicode="Y" horiz-adv-x="1292" d="M20 1333l449 -786v-547h319v539l484 854h-332l-313 -541l-297 569z" />
<glyph unicode="Z" horiz-adv-x="1189" d="M25 236l36 -236h1100l-33 250h-743l770 905l-35 238h-1036l33 -252h661z" />
<glyph unicode="[" horiz-adv-x="862" d="M205 -178h637l-37 250h-281v1102h281l37 251h-637v-1603z" />
<glyph unicode="\" horiz-adv-x="983" d="M20 1450l613 -1454l330 4l-611 1454z" />
<glyph unicode="]" horiz-adv-x="862" d="M20 -178h637v1603h-637l35 -251h281v-1102h-281z" />
<glyph unicode="^" horiz-adv-x="952" d="M20 291h320l139 231l137 -231h316l-340 543h-230z" />
<glyph unicode="_" horiz-adv-x="919" d="M61 250l23 -250h774l-20 250h-777z" />
<glyph unicode="`" horiz-adv-x="483" d="M20 1577l216 -373l227 49l-121 324h-322z" />
<glyph unicode="a" horiz-adv-x="1036" d="M76 309q0 -154 92 -243t272 -89q133 0 244 127l76 -104h178v633q0 115 -52 204t-148.5 138t-221.5 49q-94 0 -213 -27.5t-186 -64.5l86 -246q57 27 133 45.5t135 18.5q63 0 101 -36t42 -102h-155q-178 0 -280.5 -75.5t-102.5 -227.5zM346 311q0 47 32 78t83 31h155v-121 q-84 -78 -174 -78q-43 0 -69.5 26.5t-26.5 63.5z" />
<glyph unicode="b" horiz-adv-x="1165" d="M127 0v1423l319 23v-457q80 35 168 35q232 0 368 -135t136 -383t-138 -388.5t-378 -140.5q-129 0 -254 89l-57 -66h-164zM446 276q72 -43 142 -43q90 0 145 75t55 196q0 123 -55 192.5t-153 69.5q-63 0 -134 -47v-443z" />
<glyph unicode="c" horiz-adv-x="950" d="M45 496q0 -160 66.5 -278t188.5 -179.5t282 -61.5q82 0 177 23t165 78l-90 225q-68 -33 -121.5 -47t-110.5 -14q-96 0 -160.5 69.5t-64.5 184.5t64.5 188.5t160.5 73.5q59 0 110.5 -13.5t121.5 -46.5l90 224q-72 53 -168.5 77.5t-173.5 24.5q-160 0 -282 -64.5 t-188.5 -184.5t-66.5 -279z" />
<glyph unicode="d" horiz-adv-x="1183" d="M45 496q0 248 139.5 388t378.5 140q84 0 170 -41v440l322 23v-1446h-164l-60 80q-61 -47 -132.5 -75t-147.5 -28q-231 0 -368.5 135.5t-137.5 383.5zM377 498q0 -123 55 -194t154 -71q68 0 147 58v424q-74 51 -155 51q-90 0 -145.5 -74t-55.5 -194z" />
<glyph unicode="e" horiz-adv-x="1073" d="M45 496q0 -244 156.5 -381.5t429.5 -137.5q121 0 222 31t171 82l-90 223q-137 -77 -277 -77h-4q-217 0 -262 174h637v96q0 145 -52 262t-156.5 186.5t-256.5 69.5t-269.5 -64.5t-183 -184.5t-65.5 -279zM387 592q8 76 54 122t114 46q72 0 114 -46t54 -122h-336z" />
<glyph unicode="f" horiz-adv-x="845" d="M23 721h159v-721h320v721h291l-60 250h-231v45q0 72 32.5 113.5t92.5 41.5q63 0 127 -32l92 223q-37 31 -107.5 54.5t-130.5 23.5q-186 0 -306 -102.5t-120 -282.5v-84h-159v-250z" />
<glyph unicode="g" horiz-adv-x="1175" d="M45 496q0 248 139.5 388t378.5 140q70 0 141.5 -27.5t133.5 -78.5l53 73h164v-1030q0 -131 -66.5 -229.5t-188.5 -150.5t-282 -52q-82 0 -217 30.5t-215 84.5l96 225q166 -82 318 -82q104 0 168.5 48t64.5 128v55q-92 -41 -182 -41q-231 0 -368.5 135.5t-137.5 383.5z M377 498q0 -123 55 -194t154 -71q67 1 147 58v424q-74 51 -155 51q-90 0 -145.5 -74t-55.5 -194z" />
<glyph unicode="h" horiz-adv-x="1224" d="M127 0v1423l319 23v-516q80 43 165 69.5t163 26.5q350 0 350 -393v-633h-319v608q0 72 -32 114t-93 42q-86 0 -234 -86v-678h-319z" />
<glyph unicode="i" horiz-adv-x="534" d="M90 1307q0 -72 52.5 -124.5t123.5 -52.5q74 0 126 52.5t52 124.5q0 74 -52 126t-126 52q-72 0 -124 -52.5t-52 -125.5zM106 0h322v993h-322v-993z" />
<glyph unicode="j" horiz-adv-x="577" d="M-16 -162q70 25 103.5 54.5t42.5 65.5t9 93v942h322v-1001q0 -104 -31 -173t-106.5 -120t-212.5 -96zM123 1307q0 74 52 126t124 52q74 0 126 -52.5t52 -125.5q0 -72 -52 -124.5t-126 -52.5q-70 0 -123 52.5t-53 124.5z" />
<glyph unicode="k" horiz-adv-x="1110" d="M127 0h319v322l89 73l223 -395h352l-348 578l270 221l-186 223l-400 -352v776l-319 -23v-1423z" />
<glyph unicode="l" horiz-adv-x="575" d="M127 0h319v1446l-319 -23v-1423z" />
<glyph unicode="m" horiz-adv-x="1820" d="M106 0v993h199l55 -104q90 61 190.5 99t188.5 38q201 0 281 -129q88 57 184 93t182 36q179 0 256.5 -97.5t77.5 -277.5v-651h-319v608q0 76 -23.5 116t-87.5 40q-43 0 -96 -23.5t-119 -62.5v-27v-651h-319v608q0 76 -23.5 116t-87.5 40q-43 0 -97 -23.5t-120 -62.5v-678 h-322z" />
<glyph unicode="n" horiz-adv-x="1204" d="M106 0h322v678q147 86 234 86q61 0 91.5 -42t30.5 -114v-608h322v633q0 182 -83 287.5t-267 105.5q-94 0 -199.5 -38t-196.5 -99l-55 104h-199v-993z" />
<glyph unicode="o" horiz-adv-x="1185" d="M45 500q0 160 70.5 278.5t194.5 182t284 63.5q162 0 286 -62.5t192.5 -181t68.5 -284.5q0 -160 -71 -277t-195.5 -179.5t-284.5 -62.5q-162 0 -285 60.5t-191.5 178.5t-68.5 284zM377 500q0 -117 58.5 -187.5t156.5 -70.5t157.5 69.5t59.5 184.5t-58.5 188.5t-154.5 73.5 q-100 0 -159.5 -71t-59.5 -187z" />
<glyph unicode="p" horiz-adv-x="1157" d="M119 -449v1440h162l55 -61q129 94 270 94q232 0 368 -135t136 -383t-138 -388.5t-378 -140.5q-74 0 -156 33v-438zM438 276q70 -43 142 -43q90 0 145 75t55 196q0 123 -55 192.5t-154 69.5q-63 0 -133 -47v-443z" />
<glyph unicode="q" horiz-adv-x="1175" d="M45 496q0 248 139.5 388t378.5 140q70 0 140.5 -27.5t130.5 -76.5l57 71h164v-1417l-322 -23v467q-92 -41 -182 -41q-231 0 -368.5 135.5t-137.5 383.5zM377 498q0 -123 55 -194t154 -71q67 1 147 58v424q-74 51 -155 51q-90 0 -145.5 -74t-55.5 -194z" />
<glyph unicode="r" horiz-adv-x="780" d="M106 0h322v594q74 63 167 103t165 40l-64 256q-76 0 -170 -44t-166 -99l-90 141h-164v-991z" />
<glyph unicode="s" horiz-adv-x="894" d="M49 86q70 -55 186.5 -82t198.5 -27q203 0 308.5 84t105.5 238q0 213 -342 332q-129 45 -129 78q0 29 30.5 47t77.5 18q111 0 254 -63l92 209q-72 53 -175 78.5t-181 25.5q-193 0 -303.5 -85t-110.5 -232q0 -117 96.5 -193t245.5 -127q63 -20 99.5 -45t36.5 -51 q0 -31 -38 -48.5t-87 -17.5q-53 0 -130 19.5t-141 50.5z" />
<glyph unicode="t" horiz-adv-x="858" d="M20 721h144v-375q0 -180 121 -278.5t309 -98.5q61 0 133 22.5t107 51.5l-93 223q-63 -33 -127 -33q-61 0 -96 43t-35 113v332h279l-57 250h-222v301l-319 -49v-252h-144v-250z" />
<glyph unicode="u" horiz-adv-x="1204" d="M98 360q0 -182 83 -288.5t270 -106.5q94 0 197.5 39t195.5 98l76 -104h178v993h-322v-676q-139 -88 -231 -88q-63 0 -94 42t-31 116v606h-322v-631z" />
<glyph unicode="v" horiz-adv-x="1097" d="M31 942l364 -942h291l391 993h-325l-205 -581l-213 618z" />
<glyph unicode="w" horiz-adv-x="1566" d="M20 942l302 -942h282l166 561l170 -561h283l323 993h-325l-136 -569l-149 569h-324l-139 -569l-149 606z" />
<glyph unicode="x" horiz-adv-x="1093" d="M20 0h359l164 256l157 -256h357l-322 471l338 522h-352l-178 -278l-199 309l-305 -80l311 -444z" />
<glyph unicode="y" horiz-adv-x="1091" d="M20 942l351 -899l-29 -68q-18 -49 -83.5 -88t-172.5 -84l109 -254q145 33 267 122t169 206l440 1116h-328l-202 -581l-217 618z" />
<glyph unicode="z" horiz-adv-x="917" d="M20 168l41 -168h834l-27 254h-450l448 559l-16 180h-793l41 -256h373z" />
<glyph unicode="{" horiz-adv-x="659" d="M61 524h93q35 0 60.5 -23.5t25.5 -60.5t-31 -116q-37 -98 -37 -148q0 -121 71.5 -189.5t219.5 -68.5h176l-27 248h-80q-39 0 -58 18.5t-19 44.5q0 35 8 57.5t26 59.5q18 33 27.5 59.5t9.5 63.5q0 98 -71 166q71 58 71 164q0 41 -9 68.5t-28 60.5q-18 29 -26 52.5t-8 57.5 q0 27 19.5 45.5t57.5 18.5h80l27 248h-176q-147 0 -219 -69t-72 -189q0 -61 41 -164q27 -76 27 -103q0 -37 -26 -60.5t-60 -23.5h-93v-217z" />
<glyph unicode="|" horiz-adv-x="657" d="M168 0l319 -27v1461l-319 26v-1460z" />
<glyph unicode="}" horiz-adv-x="657" d="M18 -82h177q147 0 218.5 68.5t71.5 189.5q0 39 -16 89t-20 63q-31 80 -31 112q0 37 25.5 60.5t60.5 23.5h92v217h-92q-35 0 -60.5 23.5t-25.5 60.5q0 23 13 60t15 45q20 57 29.5 92t9.5 70q0 121 -71.5 189.5t-218.5 68.5h-177l27 -248h80q39 0 58.5 -18.5t19.5 -45.5 q0 -37 -9.5 -61.5t-25.5 -52.5q-18 -33 -27.5 -59.5t-9.5 -65.5q0 -106 72 -164q-72 -68 -72 -166q0 -37 9.5 -63.5t27.5 -59.5q18 -37 26.5 -59.5t8.5 -57.5q0 -27 -19.5 -45t-58.5 -18h-80z" />
<glyph unicode="~" horiz-adv-x="1071" d="M61 356h267q0 35 22.5 61.5t48.5 26.5q45 0 79 -8t85 -24t90 -25.5t88 -9.5q127 0 198 101.5t71 287.5h-248q-2 -37 -22.5 -63.5t-49.5 -26.5q-41 0 -75.5 8t-79.5 23q-59 18 -95.5 26t-85.5 8q-133 0 -213 -101t-80 -284z" />
<glyph unicode="&#xa1;" horiz-adv-x="460" d="M61 1282q0 -72 49.5 -121t118.5 -49q72 0 121 49t49 121t-49 120t-121 48q-70 0 -119 -49t-49 -119zM66 0h325l-35 946l-254 90z" />
<glyph unicode="&#xa2;" horiz-adv-x="950" d="M45 496q0 207 108.5 343t295.5 173v233l288 27v-268q109 -25 187 -82l-90 -224q-70 33 -121 46.5t-111 13.5q-96 0 -160.5 -74t-64.5 -188q0 -115 64.5 -184.5t160.5 -69.5q57 0 110.5 14t121.5 47l90 -225q-70 -55 -185 -82v-242h-288v236q-188 35 -297 167t-109 339z " />
<glyph unicode="&#xa3;" horiz-adv-x="1052" d="M86 571h162v-165q0 -74 -36 -114t-124 -42l21 -250h923l-37 250h-452q25 55 24 147v174h320l-62 250h-258v158q0 72 35 114t103 42q27 0 61.5 -8.5t64.5 -24.5l93 221q-35 31 -107 54.5t-133 23.5q-193 0 -314.5 -101.5t-121.5 -281.5v-197h-162v-250z" />
<glyph unicode="&#xa4;" horiz-adv-x="1552" d="M61 977l234 -223q-61 -117 -62 -252q0 -135 60 -250l-219 -219l211 -226l223 232q121 -59 272 -64q147 4 264 62l218 -225l229 221l-231 217q61 109 65 258q-4 141 -63 252l217 217l-211 225l-224 -229q-123 61 -266 61t-270 -63l-217 225zM555 504q2 94 65.5 159.5 t155.5 67.5q92 0 158.5 -65.5t69.5 -159.5q-3 -96 -67.5 -163t-158.5 -67q-92 2 -156.5 68t-66.5 160z" />
<glyph unicode="&#xa5;" horiz-adv-x="1292" d="M20 1333l310 88l297 -569l313 541h332l-424 -748h246l20 -217h-326v-96h306l20 -217h-326v-115h-319v115h-270l-21 217h291v96h-270l-21 217h236z" />
<glyph unicode="&#xa6;" horiz-adv-x="657" d="M168 0l319 -27v615l-319 26v-614zM168 846l319 -27v615l-319 26v-614z" />
<glyph unicode="&#xa7;" horiz-adv-x="1345" d="M66 819q2 115 67.5 204t181.5 134q-4 37 -4 53q0 111 60.5 199t173 138t264.5 50q102 0 210.5 -30.5t192.5 -79.5l-100 -232q-104 41 -165.5 57.5t-133.5 16.5q-76 0 -124 -32.5t-48 -88.5q0 -43 39 -74.5t127 -80.5l72 -41q145 -84 223 -138.5t137 -137.5t59 -191 q0 -115 -64.5 -204t-182.5 -138q4 -29 4 -49q0 -115 -64.5 -205t-186.5 -141.5t-288 -51.5q-96 0 -228 35t-206 80l92 250q66 -35 163 -64.5t173 -29.5q102 0 157.5 35.5t55.5 95.5q0 39 -42 71.5t-136 87.5q-20 10 -62 35q-139 84 -218 139.5t-139 139.5t-60 188zM397 817 q0 -45 40 -78.5t128 -81.5q35 -14 68 -36q94 -56 154.5 -92.5t111.5 -79.5q33 16 51.5 42.5t18.5 57.5q0 39 -43 72.5t-135 85.5l-64 36q-98 59 -153.5 94t-104.5 81q-72 -33 -72 -101z" />
<glyph unicode="&#xa8;" horiz-adv-x="757" d="M20 1386q0 -63 45.5 -107t108.5 -44q64 0 107 43t43 108q0 61 -43 106.5t-107 45.5q-63 0 -108.5 -45t-45.5 -107zM432 1386q0 -63 45 -107t107 -44q65 0 109 43t44 108q0 61 -44 106.5t-109 45.5q-59 0 -105.5 -45t-46.5 -107z" />
<glyph unicode="&#xa9;" horiz-adv-x="1687" d="M45 688q0 -215 100.5 -393t281.5 -281.5t417 -103.5t418 103.5t281 281.5t99 393q0 217 -99 395.5t-281.5 281.5t-417.5 103q-236 0 -417 -103t-281.5 -281.5t-100.5 -395.5zM270 690q0 164 71 295t201 207t302 76q178 0 307 -75t196.5 -206t67.5 -297q0 -164 -70.5 -295 t-199.5 -205.5t-301 -74.5t-302 74.5t-201 206.5t-71 294zM401 688q0 -217 128 -341t345 -124q72 0 156 20.5t146 69.5l-82 211q-59 -31 -104.5 -43t-96.5 -12q-82 0 -134 58.5t-52 160.5q0 104 52 164.5t134 60.5q53 0 96 -12t105 -43l82 213q-66 47 -150 68.5t-152 21.5 q-137 0 -244.5 -58.5t-168 -165t-60.5 -249.5z" />
<glyph unicode="&#xaa;" horiz-adv-x="690" d="M45 946q0 -104 64.5 -166.5t189.5 -62.5q51 0 102.5 19.5t85.5 49.5l48 -55h110v436q0 125 -76.5 198t-218.5 73q-72 0 -147.5 -18.5t-128.5 -45.5l61 -196q41 16 93.5 29.5t88.5 13.5q63 0 84 -54h-90q-121 0 -193.5 -58t-72.5 -163zM266 958q0 17 15.5 27t40.5 10h90 v-32q-39 -37 -101 -37q-23 0 -34 9t-11 23z" />
<glyph unicode="&#xab;" horiz-adv-x="841" d="M61 457l324 -297l59 196l-155 148l155 145l-59 201l-324 -299v-94zM420 457l325 -297l56 196l-154 148l154 145l-56 201l-325 -299v-94z" />
<glyph unicode="&#xac;" horiz-adv-x="1093" d="M20 850l23 -252h705v-358l284 -13v504l-26 119h-986z" />
<glyph unicode="&#xad;" horiz-adv-x="245" />
<glyph unicode="&#xae;" horiz-adv-x="1490" d="M45 985q0 -193 86 -350.5t245 -248.5t367 -91q211 0 370 91t245 249t86 350q0 197 -86 355.5t-245 249.5t-370 91q-209 0 -367.5 -91t-244.5 -249.5t-86 -355.5zM240 987q0 150 60 265.5t175 181t268 65.5q156 0 270.5 -65.5t176 -181t61.5 -265.5q0 -145 -61.5 -261 t-177 -183.5t-269.5 -67.5t-268.5 66.5t-174.5 183.5t-60 262zM453 618h200v261h92l109 -261h227l-141 304q57 33 92 85t35 119q0 119 -89 180.5t-220 61.5h-305v-750zM653 1036v170h68q65 0 97 -17.5t32 -66.5q0 -86 -129 -86h-68z" />
<glyph unicode="&#xaf;" horiz-adv-x="606" d="M20 1255h566l-21 252h-545v-252z" />
<glyph unicode="&#xb0;" horiz-adv-x="567" d="M20 1227q0 -106 78 -178t187 -72q70 0 130 32.5t96 90t36 127.5q0 68 -36 126t-96.5 92t-129.5 34q-70 0 -131.5 -34t-97.5 -92.5t-36 -125.5zM219 1227q0 25 20.5 45t47.5 20t46 -21.5t19 -49.5q0 -25 -19.5 -45.5t-45.5 -20.5q-27 0 -47.5 22.5t-20.5 49.5z" />
<glyph unicode="&#xb1;" horiz-adv-x="1040" d="M63 219l21 -219h893l-14 219h-900zM63 821l23 -217h305v-295l266 -12v307h322l-21 217h-301v307l-266 2v-309h-328z" />
<glyph unicode="&#xb2;" horiz-adv-x="774" d="M29 1479l104 -179q63 33 114.5 49.5t102.5 16.5q49 0 78 -20.5t29 -49.5q-2 -51 -31 -98t-92 -100l-273 -232v-176h672l-26 203h-285l78 63q111 94 158 176t47 179q0 68 -37 129t-114 100t-189 39q-99 0 -180 -27.5t-156 -72.5z" />
<glyph unicode="&#xb3;" horiz-adv-x="798" d="M0 678q76 -51 171 -79t183 -28q115 0 203 39t136 108.5t48 158.5q0 76 -42 141t-95 90q45 18 83 79.5t38 119.5q0 121 -93 196.5t-257 75.5q-186 0 -342 -113l114 -178q51 39 97.5 58.5t97.5 19.5q55 0 85 -18.5t30 -53.5q0 -41 -34 -69.5t-110 -28.5h-112l24 -203h111 q63 0 100 -29.5t37 -84.5q0 -41 -37 -69t-94 -28q-53 0 -101 17.5t-114 56.5z" />
<glyph unicode="&#xb4;" horiz-adv-x="483" d="M20 1253l228 -49l215 373h-322z" />
<glyph unicode="&#xb5;" horiz-adv-x="1224" d="M119 -449v1440h321v-606q0 -74 31 -116t94 -42q92 0 232 88v676h321v-993h-198l-56 104q-92 -59 -195.5 -98t-197.5 -39h-31v-393z" />
<glyph unicode="&#xb6;" horiz-adv-x="2013" d="M45 922q0 -160 82 -268.5t218 -162t302 -53.5h49v-438h322v1141h389v-1141h322v1141h237v252h-1343q-256 0 -417 -116t-161 -355z" />
<glyph unicode="&#xb7;" horiz-adv-x="460" d="M61 539q0 -72 49.5 -121t120.5 -49q72 0 120 49t48 121t-48 120t-120 48t-121 -49.5t-49 -118.5z" />
<glyph unicode="&#xb8;" horiz-adv-x="530" d="M20 -424q41 -31 103.5 -51.5t114.5 -20.5q113 0 192.5 60.5t79.5 169.5q0 57 -38 115.5t-103 80.5l39 97h-224l-82 -201q74 -6 126.5 -27.5t52.5 -56.5q0 -18 -19.5 -27.5t-48.5 -9.5q-43 0 -123 37z" />
<glyph unicode="&#xb9;" horiz-adv-x="661" d="M20 1409l82 -205l170 76v-590h260v875h-172z" />
<glyph unicode="&#xba;" horiz-adv-x="806" d="M45 1077q0 -168 91 -264t255 -96q168 0 268.5 96t100.5 260q0 168 -94.5 266.5t-264.5 98.5q-163 0 -259.5 -97.5t-96.5 -263.5zM301 1077q0 72 27.5 107t77.5 35q53 0 76.5 -38t23.5 -110q0 -139 -109 -139q-51 0 -73.5 36t-22.5 109z" />
<glyph unicode="&#xbb;" horiz-adv-x="843" d="M41 358l57 -198l324 297v96l-324 297l-57 -199l154 -147zM401 358l56 -198l325 297v96l-325 297l-56 -199l154 -147z" />
<glyph unicode="&#xbc;" horiz-adv-x="1951" d="M20 1409l82 -205l170 76v-590h260v875h-172zM106 -274h316l1212 1708h-317zM1018 45l29 -205h423v-180h267v180h155l19 213h-174v611h-191zM1313 53l157 187v-187h-157z" />
<glyph unicode="&#xbd;" horiz-adv-x="1953" d="M20 1409l82 -205l170 76v-590h260v875h-172zM106 -274h316l1212 1708h-317zM1208 563l105 -178q61 33 113.5 50.5t103.5 17.5q47 0 75.5 -23.5t28.5 -54.5q0 -51 -28.5 -94t-94.5 -99l-270 -229v-176h672l-27 200h-284l77 66q109 94 156 176t47 176q0 68 -36 129.5 t-112.5 101.5t-191.5 40q-98 0 -179 -28t-155 -75z" />
<glyph unicode="&#xbe;" horiz-adv-x="1941" d="M0 678q76 -51 171 -79t183 -28q115 0 203 39t136 108.5t48 158.5q0 76 -42 141t-95 90q45 18 83 79.5t38 119.5q0 121 -93 196.5t-257 75.5q-186 0 -342 -113l114 -178q51 39 97.5 58.5t97.5 19.5q55 0 85 -18.5t30 -53.5q0 -41 -34 -69.5t-110 -28.5h-112l24 -203h111 q63 0 100 -29.5t37 -84.5q0 -41 -37 -69t-94 -28q-53 0 -101 17.5t-114 56.5zM160 -274h313l1213 1708h-316zM1008 45l30 -205h424v-180h267v180h153l19 213h-172v611h-193zM1303 53l159 187v-187h-159z" />
<glyph unicode="&#xbf;" horiz-adv-x="923" d="M61 305q0 -172 120 -276.5t327 -104.5q211 0 395 111l-41 272q-195 -121 -348 -121q-59 0 -98 32t-39 85q0 68 89 137.5t232 116.5l-16 332l-242 78l-28 -256q-168 -74 -259.5 -180.5t-91.5 -225.5zM410 1192q0 -72 48 -121t120 -49q71 0 121.5 49t50.5 121 q0 70 -50.5 119t-121.5 49q-70 0 -119 -48t-49 -120z" />
<glyph unicode="&#xc0;" d="M20 0h320l109 301h505l113 -321l315 36l-528 1377h-301zM407 1880l216 -373l227 47l-121 326h-322zM539 555l157 432l164 -432h-321z" />
<glyph unicode="&#xc1;" d="M20 0h320l109 301h505l113 -321l315 36l-528 1377h-301zM539 555l157 432l164 -432h-321zM573 1554l228 -47l215 373h-322z" />
<glyph unicode="&#xc2;" d="M20 0h320l109 301h505l113 -321l315 36l-528 1377h-301zM272 1550l310 -37l121 129l120 -129l301 37l-333 336h-185zM539 555l157 432l164 -432h-321z" />
<glyph unicode="&#xc3;" d="M20 0h320l109 301h505l113 -321l315 36l-528 1377h-301zM331 1536h218q0 20 16 40.5t35 20.5q33 0 54.5 -8t45.5 -26q29 -18 51.5 -27.5t59.5 -9.5q100 0 167.5 69.5t67.5 219.5h-207q0 -23 -15 -42.5t-36 -19.5q-31 0 -52.5 8t-49.5 25q-31 18 -55.5 27.5t-59.5 9.5 q-100 0 -170 -68.5t-70 -218.5zM539 555l157 432l164 -432h-321z" />
<glyph unicode="&#xc4;" d="M20 0h320l109 301h505l113 -321l315 36l-528 1377h-301zM346 1694q0 -63 45.5 -107.5t108.5 -44.5q64 0 107 43t43 109q0 61 -43 106t-107 45q-63 0 -108.5 -45t-45.5 -106zM539 555l157 432l164 -432h-321zM758 1694q0 -63 45 -107.5t107 -44.5q65 0 109 43t44 109 q0 61 -44 106t-109 45q-59 0 -105.5 -45t-46.5 -106z" />
<glyph unicode="&#xc5;" d="M20 0h320l109 301h505l113 -321l315 36l-528 1377h-301zM464 1743q0 -94 69 -156.5t167 -62.5q96 0 166 62.5t70 156.5q0 92 -71 157.5t-165 65.5q-96 0 -166 -65.5t-70 -157.5zM539 555l157 432l164 -432h-321zM630 1743q0 27 21.5 47t50.5 20t49.5 -19t20.5 -48 t-20.5 -50.5t-49.5 -21.5t-50.5 21.5t-21.5 50.5z" />
<glyph unicode="&#xc6;" horiz-adv-x="1996" d="M10 23l307 -48l207 320h434v-295h998l-39 250h-637v325h479l-39 252h-440v314h594l-37 252h-893zM700 549l258 373v-373h-258z" />
<glyph unicode="&#xc7;" horiz-adv-x="1187" d="M66 690q0 211 88 377t245.5 259t360.5 93q90 0 198.5 -26.5t190.5 -75.5l-96 -221q-111 35 -165 47t-130 12q-96 0 -179 -57.5t-132.5 -163t-49.5 -242.5q0 -131 47.5 -234.5t129 -161.5t184.5 -58q145 0 284 69l121 -237q-57 -33 -137 -55.5t-162 -34.5l-20 -50 q65 -22 103 -80.5t38 -115.5q0 -109 -80 -169.5t-192 -60.5q-51 0 -113.5 20.5t-103.5 51.5l69 166q80 -37 123 -37q29 0 48.5 9.5t19.5 27.5q0 35 -52.5 56.5t-125.5 27.5l63 156q-182 25 -311 121t-196.5 247.5t-67.5 339.5z" />
<glyph unicode="&#xc8;" horiz-adv-x="1208" d="M168 0h999l-39 250h-641v325h482l-39 252h-443v314h598l-38 252h-879v-1393zM356 1880l216 -373l227 47l-121 326h-322z" />
<glyph unicode="&#xc9;" horiz-adv-x="1208" d="M168 0h999l-39 250h-641v325h482l-39 252h-443v314h598l-38 252h-879v-1393zM522 1554l228 -47l215 373h-322z" />
<glyph unicode="&#xca;" horiz-adv-x="1208" d="M168 0h999l-39 250h-641v325h482l-39 252h-443v314h598l-38 252h-879v-1393zM221 1550l310 -37l121 129l120 -129l301 37l-333 336h-185z" />
<glyph unicode="&#xcb;" horiz-adv-x="1208" d="M168 0h999l-39 250h-641v325h482l-39 252h-443v314h598l-38 252h-879v-1393zM294 1694q0 -63 45.5 -107.5t108.5 -44.5q64 0 107 43t43 109q0 61 -43 106t-107 45q-63 0 -108.5 -45t-45.5 -106zM706 1694q0 -63 45 -107.5t107 -44.5q65 0 109 43t44 109q0 61 -44 106 t-109 45q-59 0 -105.5 -45t-46.5 -106z" />
<glyph unicode="&#xcc;" horiz-adv-x="657" d="M38 1880l216 -373l227 47l-121 326h-322zM168 0h319v1393h-319v-1393z" />
<glyph unicode="&#xcd;" horiz-adv-x="657" d="M168 0h319v1393h-319v-1393zM204 1554l228 -47l215 373h-322z" />
<glyph unicode="&#xce;" horiz-adv-x="657" d="M-97 1550l310 -37l121 129l120 -129l301 37l-333 336h-185zM168 0h319v1393h-319v-1393z" />
<glyph unicode="&#xcf;" horiz-adv-x="657" d="M-23 1694q0 -63 45.5 -107.5t108.5 -44.5q64 0 107 43t43 109q0 61 -43 106t-107 45q-63 0 -108.5 -45t-45.5 -106zM168 0h319v1393h-319v-1393zM389 1694q0 -63 45 -107.5t107 -44.5q65 0 109 43t44 109q0 61 -44 106t-109 45q-59 0 -105.5 -45t-46.5 -106z" />
<glyph unicode="&#xd0;" horiz-adv-x="1464" d="M18 825h150v568h582q208 0 354.5 -88t220.5 -243t74 -357q0 -215 -80 -374t-227.5 -245t-346.5 -86h-577v573h-121zM487 258h244q156 0 246 110.5t90 336.5q0 199 -82 313.5t-240 114.5h-258v-308h185l26 -252h-211v-315z" />
<glyph unicode="&#xd1;" horiz-adv-x="1554" d="M168 0h319v831l590 -831h307v1393h-319v-842l-590 842h-307v-1393zM405 1536h218q0 20 16 40.5t35 20.5q33 0 54.5 -8t45.5 -26q29 -18 51.5 -27.5t59.5 -9.5q100 0 167.5 69.5t67.5 219.5h-207q0 -23 -15 -42.5t-36 -19.5q-31 0 -52.5 8t-49.5 25q-31 18 -55.5 27.5 t-59.5 9.5q-100 0 -170 -68.5t-70 -218.5z" />
<glyph unicode="&#xd2;" horiz-adv-x="1536" d="M66 690q0 -201 85 -364.5t243.5 -259t373.5 -95.5q205 2 364.5 95.5t248.5 259.5t89 379q0 201 -83.5 364.5t-242.5 258.5t-376 95q-205 -2 -364.5 -96t-248.5 -260t-89 -377zM397 692q0 137 51.5 242.5t136.5 163t187 57.5q111 0 194 -58.5t128 -160.5t45 -231 q0 -152 -49.5 -256.5t-134.5 -156.5t-189 -52q-170 0 -269.5 126t-99.5 326zM471 1880l216 -373l227 47l-121 326h-322z" />
<glyph unicode="&#xd3;" horiz-adv-x="1536" d="M66 690q0 -201 85 -364.5t243.5 -259t373.5 -95.5q205 2 364.5 95.5t248.5 259.5t89 379q0 201 -83.5 364.5t-242.5 258.5t-376 95q-205 -2 -364.5 -96t-248.5 -260t-89 -377zM397 692q0 137 51.5 242.5t136.5 163t187 57.5q111 0 194 -58.5t128 -160.5t45 -231 q0 -152 -49.5 -256.5t-134.5 -156.5t-189 -52q-170 0 -269.5 126t-99.5 326zM636 1554l228 -47l215 373h-322z" />
<glyph unicode="&#xd4;" horiz-adv-x="1536" d="M66 690q0 -201 85 -364.5t243.5 -259t373.5 -95.5q205 2 364.5 95.5t248.5 259.5t89 379q0 201 -83.5 364.5t-242.5 258.5t-376 95q-205 -2 -364.5 -96t-248.5 -260t-89 -377zM335 1550l310 -37l121 129l120 -129l301 37l-333 336h-185zM397 692q0 137 51.5 242.5 t136.5 163t187 57.5q111 0 194 -58.5t128 -160.5t45 -231q0 -152 -49.5 -256.5t-134.5 -156.5t-189 -52q-170 0 -269.5 126t-99.5 326z" />
<glyph unicode="&#xd5;" horiz-adv-x="1536" d="M66 690q0 -201 85 -364.5t243.5 -259t373.5 -95.5q205 2 364.5 95.5t248.5 259.5t89 379q0 201 -83.5 364.5t-242.5 258.5t-376 95q-205 -2 -364.5 -96t-248.5 -260t-89 -377zM395 1536h218q0 20 16 40.5t35 20.5q33 0 54.5 -8t45.5 -26q29 -18 51.5 -27.5t59.5 -9.5 q100 0 167.5 69.5t67.5 219.5h-207q0 -23 -15 -42.5t-36 -19.5q-31 0 -52.5 8t-49.5 25q-31 18 -55.5 27.5t-59.5 9.5q-100 0 -170 -68.5t-70 -218.5zM397 692q0 137 51.5 242.5t136.5 163t187 57.5q111 0 194 -58.5t128 -160.5t45 -231q0 -152 -49.5 -256.5t-134.5 -156.5 t-189 -52q-170 0 -269.5 126t-99.5 326z" />
<glyph unicode="&#xd6;" horiz-adv-x="1536" d="M66 690q0 -201 85 -364.5t243.5 -259t373.5 -95.5q205 2 364.5 95.5t248.5 259.5t89 379q0 201 -83.5 364.5t-242.5 258.5t-376 95q-205 -2 -364.5 -96t-248.5 -260t-89 -377zM397 692q0 137 51.5 242.5t136.5 163t187 57.5q111 0 194 -58.5t128 -160.5t45 -231 q0 -152 -49.5 -256.5t-134.5 -156.5t-189 -52q-170 0 -269.5 126t-99.5 326zM409 1694q0 -63 45.5 -107.5t108.5 -44.5q64 0 107 43t43 109q0 61 -43 106t-107 45q-63 0 -108.5 -45t-45.5 -106zM821 1694q0 -63 45 -107.5t107 -44.5q65 0 109 43t44 109q0 61 -44 106 t-109 45q-59 0 -105.5 -45t-46.5 -106z" />
<glyph unicode="&#xd7;" horiz-adv-x="1204" d="M61 59l394 473l-359 459h322l186 -248l211 248h328l-393 -473l360 -459h-324l-186 248l-211 -248h-328z" />
<glyph unicode="&#xd8;" horiz-adv-x="1536" d="M66 690q0 211 89 377t248.5 260t364.5 96q217 0 376 -95t242.5 -259t83.5 -364q0 -213 -89 -379t-248.5 -259.5t-364.5 -95.5q-215 0 -373.5 95.5t-243.5 259t-85 364.5zM397 692q0 -205 101 -327l327 786q-37 4 -53 4q-102 0 -187 -57.5t-136.5 -163t-51.5 -242.5z M727 242q12 -2 39 -2q104 0 189 52t134.5 156.5t49.5 256.5q0 184 -86 305z" />
<glyph unicode="&#xd9;" horiz-adv-x="1495" d="M147 1393l3 -873q0 -166 73.5 -288.5t209.5 -190.5t315 -68q178 0 314 68t211 190.5t75 288.5v873h-322v-854q0 -145 -76 -222t-202 -77q-127 0 -203 75.5t-76 223.5v854h-322zM450 1880l216 -373l227 47l-121 326h-322z" />
<glyph unicode="&#xda;" horiz-adv-x="1495" d="M147 1393l3 -873q0 -166 73.5 -288.5t209.5 -190.5t315 -68q178 0 314 68t211 190.5t75 288.5v873h-322v-854q0 -145 -76 -222t-202 -77q-127 0 -203 75.5t-76 223.5v854h-322zM616 1554l228 -47l215 373h-322z" />
<glyph unicode="&#xdb;" horiz-adv-x="1495" d="M147 1393l3 -873q0 -166 73.5 -288.5t209.5 -190.5t315 -68q178 0 314 68t211 190.5t75 288.5v873h-322v-854q0 -145 -76 -222t-202 -77q-127 0 -203 75.5t-76 223.5v854h-322zM315 1550l310 -37l121 129l120 -129l301 37l-333 336h-185z" />
<glyph unicode="&#xdc;" horiz-adv-x="1495" d="M147 1393l3 -873q0 -166 73.5 -288.5t209.5 -190.5t315 -68q178 0 314 68t211 190.5t75 288.5v873h-322v-854q0 -145 -76 -222t-202 -77q-127 0 -203 75.5t-76 223.5v854h-322zM389 1694q0 -63 45.5 -107.5t108.5 -44.5q64 0 107 43t43 109q0 61 -43 106t-107 45 q-63 0 -108.5 -45t-45.5 -106zM801 1694q0 -63 45 -107.5t107 -44.5q65 0 109 43t44 109q0 61 -44 106t-109 45q-59 0 -105.5 -45t-46.5 -106z" />
<glyph unicode="&#xdd;" horiz-adv-x="1292" d="M20 1333l449 -786v-547h319v539l484 854h-332l-313 -541l-297 569zM495 1554l228 -47l215 373h-322z" />
<glyph unicode="&#xde;" horiz-adv-x="1304" d="M168 0v1393h319v-164h195q158 0 285 -52.5t201.5 -159t74.5 -263.5q0 -156 -80 -262.5t-212 -158.5t-287 -52h-177v-281h-319zM487 537h189q102 0 166.5 56t66.5 152q0 111 -62.5 168.5t-174.5 57.5h-185v-434z" />
<glyph unicode="&#xdf;" horiz-adv-x="1316" d="M127 0h319v950q0 98 60.5 156.5t144.5 58.5t139.5 -44t55.5 -113q0 -68 -59.5 -118t-149.5 -50h-64v-242h179q72 0 123 -48t51 -126q0 -72 -56.5 -117t-136.5 -45h-170v-262h197q147 0 260 49t174 141.5t61 215.5q0 117 -70.5 217t-164.5 131q70 39 110.5 119.5 t40.5 160.5q0 125 -68.5 216t-189 139.5t-274.5 48.5q-156 0 -271.5 -62.5t-178 -174t-62.5 -255.5v-946z" />
<glyph unicode="&#xe0;" horiz-adv-x="1036" d="M76 309q0 -154 92 -243t272 -89q133 0 244 127l76 -104h178v633q0 115 -52 204t-148.5 138t-221.5 49q-94 0 -213 -27.5t-186 -64.5l86 -246q57 27 133 45.5t135 18.5q63 0 101 -36t42 -102h-155q-178 0 -280.5 -75.5t-102.5 -227.5zM249 1577l216 -373l227 49l-121 324 h-322zM346 311q0 47 32 78t83 31h155v-121q-84 -78 -174 -78q-43 0 -69.5 26.5t-26.5 63.5z" />
<glyph unicode="&#xe1;" horiz-adv-x="1036" d="M76 309q0 -154 92 -243t272 -89q133 0 244 127l76 -104h178v633q0 115 -52 204t-148.5 138t-221.5 49q-94 0 -213 -27.5t-186 -64.5l86 -246q57 27 133 45.5t135 18.5q63 0 101 -36t42 -102h-155q-178 0 -280.5 -75.5t-102.5 -227.5zM346 311q0 47 32 78t83 31h155v-121 q-84 -78 -174 -78q-43 0 -69.5 26.5t-26.5 63.5zM350 1253l228 -49l215 373h-322z" />
<glyph unicode="&#xe2;" horiz-adv-x="1036" d="M76 309q0 -154 92 -243t272 -89q133 0 244 127l76 -104h178v633q0 115 -52 204t-148.5 138t-221.5 49q-94 0 -213 -27.5t-186 -64.5l86 -246q57 27 133 45.5t135 18.5q63 0 101 -36t42 -102h-155q-178 0 -280.5 -75.5t-102.5 -227.5zM92 1243l310 -39l121 131l120 -131 l301 39l-333 334h-185zM346 311q0 47 32 78t83 31h155v-121q-84 -78 -174 -78q-43 0 -69.5 26.5t-26.5 63.5z" />
<glyph unicode="&#xe3;" horiz-adv-x="1036" d="M76 309q0 -154 92 -243t272 -89q133 0 244 127l76 -104h178v633q0 115 -52 204t-148.5 138t-221.5 49q-94 0 -213 -27.5t-186 -64.5l86 -246q57 27 133 45.5t135 18.5q63 0 101 -36t42 -102h-155q-178 0 -280.5 -75.5t-102.5 -227.5zM153 1229h218q0 20 16 40.5t35 20.5 q33 0 54.5 -8t45.5 -27q29 -18 51.5 -27t59.5 -9q100 0 167.5 69.5t67.5 218.5h-207q0 -22 -15 -41.5t-36 -19.5q-31 0 -52.5 8t-49.5 25q-31 18 -55.5 27.5t-59.5 9.5q-100 0 -170 -69t-70 -218zM346 311q0 47 32 78t83 31h155v-121q-84 -78 -174 -78q-43 0 -69.5 26.5 t-26.5 63.5z" />
<glyph unicode="&#xe4;" horiz-adv-x="1036" d="M76 309q0 -154 92 -243t272 -89q133 0 244 127l76 -104h178v633q0 115 -52 204t-148.5 138t-221.5 49q-94 0 -213 -27.5t-186 -64.5l86 -246q57 27 133 45.5t135 18.5q63 0 101 -36t42 -102h-155q-178 0 -280.5 -75.5t-102.5 -227.5zM153 1386q0 -63 45.5 -107t108.5 -44 q64 0 107 43t43 108q0 61 -43 106.5t-107 45.5q-63 0 -108.5 -45t-45.5 -107zM346 311q0 47 32 78t83 31h155v-121q-84 -78 -174 -78q-43 0 -69.5 26.5t-26.5 63.5zM565 1386q0 -63 45 -107t107 -44q65 0 109 43t44 108q0 61 -44 106.5t-109 45.5q-59 0 -105.5 -45 t-46.5 -107z" />
<glyph unicode="&#xe5;" horiz-adv-x="1036" d="M76 309q0 -154 92 -243t272 -89q133 0 244 127l76 -104h178v633q0 115 -52 204t-148.5 138t-221.5 49q-94 0 -213 -27.5t-186 -64.5l86 -246q57 27 133 45.5t135 18.5q63 0 101 -36t42 -102h-155q-178 0 -280.5 -75.5t-102.5 -227.5zM282 1436q0 -94 69 -156.5t167 -62.5 q96 0 166 62t70 157q0 92 -71 157.5t-165 65.5q-96 0 -166 -65.5t-70 -157.5zM346 311q0 47 32 78t83 31h155v-121q-84 -78 -174 -78q-43 0 -69.5 26.5t-26.5 63.5zM448 1436q0 27 21.5 47t50.5 20t49.5 -19.5t20.5 -47.5q0 -29 -20.5 -50.5t-49.5 -21.5t-50.5 21.5 t-21.5 50.5z" />
<glyph unicode="&#xe6;" horiz-adv-x="1644" d="M76 309q0 152 102.5 227.5t280.5 75.5h155q-4 66 -41.5 102t-101.5 36q-59 0 -135 -18.5t-133 -45.5l-86 246q68 37 186.5 64.5t212.5 27.5q184 0 295 -98q133 98 324 98q152 0 256 -69.5t155 -186.5t51 -262v-96h-634q41 -174 260 -174q82 0 148.5 20t131.5 57l92 -223 q-68 -51 -170 -82t-223 -31q-274 0 -428 136q-66 -61 -141.5 -98.5t-192.5 -37.5q-180 0 -272 89.5t-92 242.5zM346 311q0 -37 26.5 -63.5t69.5 -26.5q70 0 116 21.5t89 62.5q-20 59 -26 115h-160q-51 0 -83 -31t-32 -78zM958 592h334q-10 74 -52 121t-114 47 q-68 0 -114.5 -46t-53.5 -122z" />
<glyph unicode="&#xe7;" horiz-adv-x="950" d="M45 496q0 160 66.5 279.5t188.5 184t282 64.5q78 0 174 -24.5t168 -77.5l-90 -224q-70 33 -121 46.5t-111 13.5q-96 0 -160.5 -74t-64.5 -188q0 -115 64.5 -184.5t160.5 -69.5q57 0 110.5 14t121.5 47l90 -225q-92 -74 -248 -94l-23 -54q66 -23 104 -81t38 -115 q0 -109 -80 -169.5t-193 -60.5q-51 0 -113.5 20.5t-103.5 51.5l70 166q80 -37 123 -37q29 0 48 9.5t19 27.5q0 35 -52 56.5t-126 27.5l66 162q-188 37 -298 169t-110 339z" />
<glyph unicode="&#xe8;" horiz-adv-x="1073" d="M45 496q0 -244 156.5 -381.5t429.5 -137.5q121 0 222 31t171 82l-90 223q-139 -78 -281 -77q-217 0 -262 174h637v96q0 145 -52 262t-156.5 186.5t-256.5 69.5t-269.5 -64.5t-183 -184.5t-65.5 -279zM284 1577l216 -373l227 49l-121 324h-322zM387 592q8 76 54 122 t114 46q72 0 114 -46t54 -122h-336z" />
<glyph unicode="&#xe9;" horiz-adv-x="1073" d="M45 496q0 -244 156.5 -381.5t429.5 -137.5q121 0 222 31t171 82l-90 223q-139 -78 -281 -77q-217 0 -262 174h637v96q0 145 -52 262t-156.5 186.5t-256.5 69.5t-269.5 -64.5t-183 -184.5t-65.5 -279zM385 1253l228 -49l215 373h-322zM387 592q8 76 54 122t114 46 q72 0 114 -46t54 -122h-336z" />
<glyph unicode="&#xea;" horiz-adv-x="1073" d="M45 496q0 -244 156.5 -381.5t429.5 -137.5q121 0 222 31t171 82l-90 223q-139 -78 -281 -77q-217 0 -262 174h637v96q0 145 -52 262t-156.5 186.5t-256.5 69.5t-269.5 -64.5t-183 -184.5t-65.5 -279zM126 1243l310 -39l121 131l120 -131l301 39l-333 334h-185zM387 592 q8 76 54 122t114 46q72 0 114 -46t54 -122h-336z" />
<glyph unicode="&#xeb;" horiz-adv-x="1073" d="M45 496q0 -244 156.5 -381.5t429.5 -137.5q121 0 222 31t171 82l-90 223q-139 -78 -281 -77q-217 0 -262 174h637v96q0 145 -52 262t-156.5 186.5t-256.5 69.5t-269.5 -64.5t-183 -184.5t-65.5 -279zM188 1386q0 -63 45.5 -107t108.5 -44q64 0 107 43t43 108 q0 61 -43 106.5t-107 45.5q-63 0 -108.5 -45t-45.5 -107zM387 592q8 76 54 122t114 46q72 0 114 -46t54 -122h-336zM600 1386q0 -63 45 -107t107 -44q65 0 109 43t44 108q0 61 -44 106.5t-109 45.5q-59 0 -105.5 -45t-46.5 -107z" />
<glyph unicode="&#xec;" horiz-adv-x="534" d="M-9 1577l216 -373l227 49l-121 324h-322zM106 0h322v993h-322v-993z" />
<glyph unicode="&#xed;" horiz-adv-x="534" d="M92 1253l228 -49l215 373h-322zM106 0h322v993h-322v-993z" />
<glyph unicode="&#xee;" horiz-adv-x="534" d="M-166 1243l310 -39l121 131l120 -131l301 39l-333 334h-185zM106 0h322v993h-322v-993z" />
<glyph unicode="&#xef;" horiz-adv-x="534" d="M-105 1386q0 -63 45.5 -107t108.5 -44q64 0 107 43t43 108q0 61 -43 106.5t-107 45.5q-63 0 -108.5 -45t-45.5 -107zM106 0h322v993h-322v-993zM307 1386q0 -63 45 -107t107 -44q65 0 109 43t44 108q0 61 -44 106.5t-109 45.5q-59 0 -105.5 -45t-46.5 -107z" />
<glyph unicode="&#xf0;" horiz-adv-x="1185" d="M45 500q0 158 68.5 277.5t187.5 183t262 63.5q29 0 43 -2q-47 53 -106 100l-283 -141l-104 205l155 78q-57 29 -149 59l114 213q166 -41 322 -129l244 123l106 -205l-135 -68q174 -151 272.5 -339.5t98.5 -380.5q0 -172 -67.5 -298t-190.5 -194t-283 -68 q-162 0 -288 60.5t-196.5 178.5t-70.5 284zM377 500q0 -117 58.5 -187.5t156.5 -70.5t157.5 69.5t59.5 184.5q0 117 -31 221q-84 41 -182 41q-100 0 -159.5 -71t-59.5 -187z" />
<glyph unicode="&#xf1;" horiz-adv-x="1204" d="M106 0h322v678q147 86 234 86q61 0 91.5 -42t30.5 -114v-608h322v633q0 182 -83 287.5t-267 105.5q-94 0 -199.5 -38t-196.5 -99l-55 104h-199v-993zM294 1229h218q0 20 16 40.5t35 20.5q33 0 54.5 -8t45.5 -27q29 -18 51.5 -27t59.5 -9q100 0 167.5 69.5t67.5 218.5 h-207q0 -22 -15 -41.5t-36 -19.5q-31 0 -52.5 8t-49.5 25q-31 18 -55.5 27.5t-59.5 9.5q-100 0 -170 -69t-70 -218z" />
<glyph unicode="&#xf2;" horiz-adv-x="1185" d="M45 500q0 160 70.5 278.5t194.5 182t284 63.5q162 0 286 -62.5t192.5 -181t68.5 -284.5q0 -160 -71 -277t-195.5 -179.5t-284.5 -62.5q-162 0 -285 60.5t-191.5 178.5t-68.5 284zM313 1577l216 -373l227 49l-121 324h-322zM377 500q0 -117 58.5 -187.5t156.5 -70.5 t157.5 69.5t59.5 184.5t-58.5 188.5t-154.5 73.5q-100 0 -159.5 -71t-59.5 -187z" />
<glyph unicode="&#xf3;" horiz-adv-x="1185" d="M45 500q0 160 70.5 278.5t194.5 182t284 63.5q162 0 286 -62.5t192.5 -181t68.5 -284.5q0 -160 -71 -277t-195.5 -179.5t-284.5 -62.5q-162 0 -285 60.5t-191.5 178.5t-68.5 284zM377 500q0 -117 58.5 -187.5t156.5 -70.5t157.5 69.5t59.5 184.5t-58.5 188.5t-154.5 73.5 q-100 0 -159.5 -71t-59.5 -187zM413 1253l228 -49l215 373h-322z" />
<glyph unicode="&#xf4;" horiz-adv-x="1185" d="M45 500q0 160 70.5 278.5t194.5 182t284 63.5q162 0 286 -62.5t192.5 -181t68.5 -284.5q0 -160 -71 -277t-195.5 -179.5t-284.5 -62.5q-162 0 -285 60.5t-191.5 178.5t-68.5 284zM155 1243l310 -39l121 131l120 -131l301 39l-333 334h-185zM377 500q0 -117 58.5 -187.5 t156.5 -70.5t157.5 69.5t59.5 184.5t-58.5 188.5t-154.5 73.5q-100 0 -159.5 -71t-59.5 -187z" />
<glyph unicode="&#xf5;" horiz-adv-x="1185" d="M45 500q0 160 70.5 278.5t194.5 182t284 63.5q162 0 286 -62.5t192.5 -181t68.5 -284.5q0 -160 -71 -277t-195.5 -179.5t-284.5 -62.5q-162 0 -285 60.5t-191.5 178.5t-68.5 284zM217 1229h218q0 20 16 40.5t35 20.5q33 0 54.5 -8t45.5 -27q29 -18 51.5 -27t59.5 -9 q100 0 167.5 69.5t67.5 218.5h-207q0 -22 -15 -41.5t-36 -19.5q-31 0 -52.5 8t-49.5 25q-31 18 -55.5 27.5t-59.5 9.5q-100 0 -170 -69t-70 -218zM377 500q0 -117 58.5 -187.5t156.5 -70.5t157.5 69.5t59.5 184.5t-58.5 188.5t-154.5 73.5q-100 0 -159.5 -71t-59.5 -187z " />
<glyph unicode="&#xf6;" horiz-adv-x="1185" d="M45 500q0 160 70.5 278.5t194.5 182t284 63.5q162 0 286 -62.5t192.5 -181t68.5 -284.5q0 -160 -71 -277t-195.5 -179.5t-284.5 -62.5q-162 0 -285 60.5t-191.5 178.5t-68.5 284zM217 1386q0 -63 45.5 -107t108.5 -44q64 0 107 43t43 108q0 61 -43 106.5t-107 45.5 q-63 0 -108.5 -45t-45.5 -107zM377 500q0 -117 58.5 -187.5t156.5 -70.5t157.5 69.5t59.5 184.5t-58.5 188.5t-154.5 73.5q-100 0 -159.5 -71t-59.5 -187zM629 1386q0 -63 45 -107t107 -44q65 0 109 43t44 108q0 61 -44 106.5t-109 45.5q-59 0 -105.5 -45t-46.5 -107z" />
<glyph unicode="&#xf7;" horiz-adv-x="1046" d="M61 682l21 -242h903l-22 242h-902zM348 197q0 -72 50.5 -122t123.5 -50q72 0 122 50t50 122q0 74 -50 124t-122 50q-74 0 -124 -50.5t-50 -123.5zM348 918q0 -72 50.5 -122.5t123.5 -50.5q72 0 122 50.5t50 122.5q0 74 -50 124t-122 50q-74 0 -124 -50.5t-50 -123.5z" />
<glyph unicode="&#xf8;" horiz-adv-x="1185" d="M45 500q0 160 70.5 278.5t194.5 182t284 63.5q162 0 286 -62.5t192.5 -181t68.5 -284.5q0 -160 -71 -277t-195.5 -179.5t-284.5 -62.5q-162 0 -285 60.5t-191.5 178.5t-68.5 284zM377 500q0 -76 26 -135l222 391q-10 2 -29 2q-100 0 -159.5 -71t-59.5 -187zM565 244 q8 -2 27 -2q98 0 157.5 69.5t59.5 184.5q0 70 -23 127z" />
<glyph unicode="&#xf9;" horiz-adv-x="1204" d="M98 360q0 -182 83 -288.5t270 -106.5q94 0 197.5 39t195.5 98l76 -104h178v993h-322v-676q-139 -88 -231 -88q-63 0 -94 42t-31 116v606h-322v-631zM327 1577l216 -373l227 49l-121 324h-322z" />
<glyph unicode="&#xfa;" horiz-adv-x="1204" d="M98 360q0 -182 83 -288.5t270 -106.5q94 0 197.5 39t195.5 98l76 -104h178v993h-322v-676q-139 -88 -231 -88q-63 0 -94 42t-31 116v606h-322v-631zM428 1253l228 -49l215 373h-322z" />
<glyph unicode="&#xfb;" horiz-adv-x="1204" d="M98 360q0 -182 83 -288.5t270 -106.5q94 0 197.5 39t195.5 98l76 -104h178v993h-322v-676q-139 -88 -231 -88q-63 0 -94 42t-31 116v606h-322v-631zM170 1243l310 -39l121 131l120 -131l301 39l-333 334h-185z" />
<glyph unicode="&#xfc;" horiz-adv-x="1204" d="M98 360q0 -182 83 -288.5t270 -106.5q94 0 197.5 39t195.5 98l76 -104h178v993h-322v-676q-139 -88 -231 -88q-63 0 -94 42t-31 116v606h-322v-631zM231 1386q0 -63 45.5 -107t108.5 -44q64 0 107 43t43 108q0 61 -43 106.5t-107 45.5q-63 0 -108.5 -45t-45.5 -107z M643 1386q0 -63 45 -107t107 -44q65 0 109 43t44 108q0 61 -44 106.5t-109 45.5q-59 0 -105.5 -45t-46.5 -107z" />
<glyph unicode="&#xfd;" horiz-adv-x="1091" d="M20 942l351 -899l-29 -68q-18 -49 -83.5 -88t-172.5 -84l109 -254q145 33 267 122t169 206l440 1116h-328l-202 -581l-217 618zM358 1253l228 -49l215 373h-322z" />
<glyph unicode="&#xfe;" horiz-adv-x="1157" d="M119 -449v1872l319 23v-463q88 41 168 41q232 0 368 -135t136 -383t-138 -388.5t-378 -140.5q-66 0 -156 39v-444zM438 276q70 -43 142 -43q90 0 145 75t55 196q0 123 -55 192.5t-154 69.5q-66 0 -133 -43v-447z" />
<glyph unicode="&#xff;" horiz-adv-x="1091" d="M20 942l351 -899l-29 -68q-18 -49 -83.5 -88t-172.5 -84l109 -254q145 33 267 122t169 206l440 1116h-328l-202 -581l-217 618zM161 1386q0 -63 45.5 -107t108.5 -44q64 0 107 43t43 108q0 61 -43 106.5t-107 45.5q-63 0 -108.5 -45t-45.5 -107zM573 1386q0 -63 45 -107 t107 -44q65 0 109 43t44 108q0 61 -44 106.5t-109 45.5q-59 0 -105.5 -45t-46.5 -107z" />
<glyph unicode="&#x152;" horiz-adv-x="2066" d="M66 690q0 211 88 377t245.5 259t360.5 93q135 0 268 -47v21h879l39 -252h-598v-314h442l39 -252h-481v-325h639l38 -250h-997v14q-135 -41 -268 -41q-217 0 -374 92.5t-238.5 255t-81.5 369.5zM397 692q0 -131 47.5 -234.5t129 -161.5t184.5 -58q139 0 270 63v803 q-96 31 -147.5 41t-122.5 10q-96 0 -179 -57.5t-132.5 -163t-49.5 -242.5z" />
<glyph unicode="&#x153;" horiz-adv-x="1738" d="M45 496q0 160 66.5 279.5t188.5 184t282 64.5q76 0 168 -22.5t161 -71.5q131 94 318 94q152 0 256 -69.5t156.5 -186.5t52.5 -262v-96h-637q41 -174 262 -174q141 0 280 77l91 -223q-68 -51 -170.5 -82t-223.5 -31q-231 0 -376 97q-70 -51 -164 -74t-174 -23 q-160 0 -282 61.5t-188.5 179.5t-66.5 278zM377 496q0 -115 64.5 -184.5t160.5 -69.5q78 0 152 26q-43 98 -43 228q0 129 45 235q-74 27 -154 27q-96 0 -160.5 -74t-64.5 -188zM1053 592h336q-12 76 -55.5 122t-112.5 46q-68 0 -114 -46t-54 -122z" />
<glyph unicode="&#x178;" horiz-adv-x="1292" d="M20 1333l449 -786v-547h319v539l484 854h-332l-313 -541l-297 569zM268 1694q0 -63 45.5 -107.5t108.5 -44.5q64 0 107 43t43 109q0 61 -43 106t-107 45q-63 0 -108.5 -45t-45.5 -106zM680 1694q0 -63 45 -107.5t107 -44.5q65 0 109 43t44 109q0 61 -44 106t-109 45 q-59 0 -105.5 -45t-46.5 -106z" />
<glyph unicode="&#x2c6;" horiz-adv-x="892" d="M20 1243l310 -39l121 131l120 -131l301 39l-333 334h-185z" />
<glyph unicode="&#x2dc;" horiz-adv-x="755" d="M20 1229h218q0 20 16 40.5t35 20.5q33 0 54.5 -8t45.5 -27q29 -18 51.5 -27t59.5 -9q100 0 167.5 69.5t67.5 218.5h-207q0 -22 -15 -41.5t-36 -19.5q-31 0 -52.5 8t-49.5 25q-31 18 -55.5 27.5t-59.5 9.5q-100 0 -170 -69t-70 -218z" />
<glyph unicode="&#x2000;" horiz-adv-x="983" />
<glyph unicode="&#x2001;" horiz-adv-x="1966" />
<glyph unicode="&#x2002;" horiz-adv-x="983" />
<glyph unicode="&#x2003;" horiz-adv-x="1966" />
<glyph unicode="&#x2004;" horiz-adv-x="655" />
<glyph unicode="&#x2005;" horiz-adv-x="491" />
<glyph unicode="&#x2006;" horiz-adv-x="327" />
<glyph unicode="&#x2007;" horiz-adv-x="327" />
<glyph unicode="&#x2008;" horiz-adv-x="245" />
<glyph unicode="&#x2009;" horiz-adv-x="393" />
<glyph unicode="&#x200a;" horiz-adv-x="109" />
<glyph unicode="&#x2010;" horiz-adv-x="700" d="M61 686l23 -252h555l-21 252h-557z" />
<glyph unicode="&#x2011;" horiz-adv-x="700" d="M61 686l23 -252h555l-21 252h-557z" />
<glyph unicode="&#x2012;" horiz-adv-x="700" d="M61 686l23 -252h555l-21 252h-557z" />
<glyph unicode="&#x2013;" horiz-adv-x="919" d="M61 686l23 -252h774l-20 252h-777z" />
<glyph unicode="&#x2014;" horiz-adv-x="1148" d="M61 686l23 -252h1003l-18 252h-1008z" />
<glyph unicode="&#x2018;" horiz-adv-x="464" d="M51 1108q0 -88 50.5 -145.5t121.5 -57.5q68 0 118 53.5t50 116.5q0 51 -30.5 96.5t-67.5 57.5q10 41 39.5 74.5t81.5 72.5l-66 144q-127 -57 -212 -175t-85 -237z" />
<glyph unicode="&#x2019;" horiz-adv-x="464" d="M41 1051l65 -146q127 59 212 177t85 237q0 88 -50 144.5t-122 56.5q-69 0 -119.5 -53.5t-50.5 -116.5q0 -51 32 -96.5t69 -57.5q-16 -70 -121 -145z" />
<glyph unicode="&#x201a;" horiz-adv-x="464" d="M41 -170l65 -145q125 57 211 177t86 236q0 88 -50 145.5t-122 57.5q-69 0 -119.5 -53t-50.5 -119q0 -49 32 -95t69 -59q-10 -41 -41 -73.5t-80 -71.5z" />
<glyph unicode="&#x201c;" horiz-adv-x="870" d="M61 1108q0 -88 50.5 -145.5t121.5 -57.5q68 0 118 53.5t50 116.5q0 51 -30.5 97.5t-69.5 56.5q10 41 41 75.5t82 71.5l-66 144q-127 -57 -212 -175t-85 -237zM467 1108q0 -88 49 -145.5t121 -57.5q70 0 121 53.5t51 116.5q0 51 -33 96.5t-69 57.5q10 41 40.5 75.5 t81.5 71.5l-67 144q-125 -57 -210 -175t-85 -237z" />
<glyph unicode="&#x201d;" horiz-adv-x="868" d="M41 1051l65 -146q127 59 212 177t85 237q0 88 -50 144.5t-122 56.5q-69 0 -119.5 -53.5t-50.5 -116.5q0 -51 32 -96.5t69 -57.5q-16 -70 -121 -145zM444 1051l68 -146q125 57 210 176t85 238q0 88 -49 144.5t-121 56.5q-70 0 -120 -53.5t-50 -116.5q0 -51 30.5 -96.5 t69.5 -57.5q-10 -41 -41.5 -76t-81.5 -69z" />
<glyph unicode="&#x201e;" horiz-adv-x="868" d="M41 -170l65 -145q125 57 211 177t86 236q0 88 -50 145.5t-122 57.5q-69 0 -119.5 -53t-50.5 -119q0 -49 32 -95t69 -59q-10 -41 -41 -73.5t-80 -71.5zM444 -170l68 -145q125 57 210 177t85 236q0 88 -49 145.5t-121 57.5q-70 0 -120 -53t-50 -119q0 -51 30.5 -96 t69.5 -58q-10 -39 -40.5 -72.5t-82.5 -72.5z" />
<glyph unicode="&#x2022;" horiz-adv-x="600" d="M61 678q0 -100 70 -169t168 -69t169 70t71 168q0 96 -71 166.5t-169 70.5t-168 -70.5t-70 -166.5z" />
<glyph unicode="&#x2026;" horiz-adv-x="1187" d="M61 154q0 -66 45.5 -110t110.5 -44q66 0 110 44t44 110t-44 109.5t-110 43.5t-111 -45t-45 -108zM442 154q0 -66 44 -110t110 -44t110 44t44 110t-44 109.5t-110 43.5t-110 -44t-44 -109zM819 154q0 -66 45 -110t109 -44q65 0 109 44t44 110t-44 109.5t-109 43.5 q-63 0 -108.5 -45t-45.5 -108z" />
<glyph unicode="&#x202f;" horiz-adv-x="393" />
<glyph unicode="&#x2039;" horiz-adv-x="516" d="M61 451l357 -308l57 234l-151 133l151 129l-57 235l-357 -307v-116z" />
<glyph unicode="&#x203a;" horiz-adv-x="514" d="M41 379l57 -236l355 308v116l-355 307l-57 -233l147 -131z" />
<glyph unicode="&#x205f;" horiz-adv-x="491" />
<glyph unicode="&#x20ac;" horiz-adv-x="1308" d="M0 631h188q-2 20 -2 59q0 47 2 70h-163l-25 219h236q74 203 244.5 321.5t400.5 118.5q90 0 198.5 -26.5t190.5 -75.5l-96 -221q-111 35 -165.5 47t-129.5 12q-86 0 -162 -46t-127 -130h387l20 -219h-475q-4 -45 -4 -68q0 -41 2 -61h457l20 -217h-409q49 -84 124.5 -130 t166.5 -46q145 0 284 69l121 -237q-78 -45 -191.5 -71t-211.5 -26q-248 0 -416 118t-236 323h-204z" />
<glyph unicode="&#x2122;" horiz-adv-x="1607" d="M20 1212h230v-604h221v604h254l-25 181h-680v-181zM784 608h224v369l129 -141l82 12l98 110v-350h223v785h-135l-229 -297l-250 297h-142v-785z" />
<glyph unicode="&#x25fc;" horiz-adv-x="1024" d="M0 0v1024h1024v-1024h-1024z" />
<glyph unicode="&#xfb01;" horiz-adv-x="1380" d="M23 721h159v-721h320v721h291l-60 250h-231v45q0 72 32.5 113.5t92.5 41.5q63 0 127 -32l92 223q-37 31 -107.5 54.5t-130.5 23.5q-186 0 -306 -102.5t-120 -282.5v-84h-159v-250zM936 1307q0 -72 52.5 -124.5t123.5 -52.5q74 0 126 52.5t52 124.5q0 74 -52 126t-126 52 q-72 0 -124 -52.5t-52 -125.5zM952 0h322v993h-322v-993z" />
<glyph unicode="&#xfb02;" horiz-adv-x="1421" d="M23 721h159v-721h320v721h291l-60 250h-231v45q0 72 32.5 113.5t92.5 41.5q63 0 127 -32l92 223q-37 31 -107.5 54.5t-130.5 23.5q-186 0 -306 -102.5t-120 -282.5v-84h-159v-250zM973 0h319v1446l-319 -23v-1423z" />
</font>
</defs>
</svg>
